<svg width="992" height="397" viewBox="0 0 992 397" fill="none" xmlns="http://www.w3.org/2000/svg">
<rect width="397" height="397" rx="60" fill="#66FF4C"/>
<path d="M113.039 233.449C102.948 233.449 97.351 221.729 103.676 213.843L227.437 59.555C235.475 49.5344 251.479 57.4188 248.483 69.9238L211.527 224.212C210.229 229.63 205.398 233.449 199.843 233.449H113.039Z" fill="#222222"/>
<path d="M283.961 163.551C294.052 163.551 299.649 175.271 293.324 183.157L169.563 337.445C161.525 347.466 145.521 339.581 148.517 327.076L185.473 172.788C186.771 167.371 191.602 163.551 197.157 163.551L283.961 163.551Z" fill="#222222"/>
<path d="M467 316.75V92.05H550.621C562.712 92.05 573.679 94.5645 583.523 99.5935C593.367 104.516 601.124 111.578 606.796 120.78C612.574 129.982 615.463 140.789 615.463 153.201C615.463 158.23 614.767 163.419 613.376 168.769C612.092 174.119 609.845 179.041 606.635 183.535C603.532 188.029 599.252 191.453 593.795 193.807C600.857 195.519 606.528 198.729 610.808 203.437C615.088 208.038 618.351 213.388 620.598 219.487C622.845 225.479 624.344 231.632 625.092 237.945C625.842 244.258 626.216 249.982 626.216 255.118C626.216 266.674 623.22 277.107 617.228 286.416C611.236 295.725 603.158 303.108 592.993 308.565C582.935 314.022 571.807 316.75 559.609 316.75H467ZM511.298 279.033H554.954C560.839 279.033 566.189 277.642 571.004 274.86C575.819 271.971 579.671 268.065 582.56 263.143C585.449 258.114 586.894 252.443 586.894 246.13C586.894 240.78 585.449 235.698 582.56 230.883C579.671 226.068 575.819 222.162 571.004 219.166C566.189 216.063 560.839 214.512 554.954 214.512H511.298V279.033ZM511.298 177.597H545.485C552.547 177.597 558.592 175.296 563.621 170.695C568.65 166.094 571.165 160.156 571.165 152.88C571.165 145.39 568.65 139.719 563.621 135.867C558.592 131.908 552.547 129.928 545.485 129.928H511.298V177.597Z" fill="#222222"/>
<path d="M719.75 320.923C704.984 320.923 691.502 317.125 679.304 309.528C667.213 301.931 657.529 291.766 650.253 279.033C643.084 266.193 639.5 252.015 639.5 236.5C639.5 224.73 641.586 213.763 645.759 203.598C649.932 193.326 655.657 184.338 662.933 176.634C670.316 168.823 678.876 162.724 688.613 158.337C698.35 153.95 708.729 151.756 719.75 151.756C734.516 151.756 747.944 155.555 760.035 163.152C772.233 170.749 781.917 180.967 789.086 193.807C796.362 206.647 800 220.878 800 236.5C800 248.163 797.913 259.077 793.74 269.242C789.567 279.407 783.789 288.395 776.406 296.206C769.13 303.91 760.624 309.956 750.887 314.343C741.257 318.73 730.878 320.923 719.75 320.923ZM719.75 276.625C726.598 276.625 732.75 274.806 738.207 271.168C743.664 267.423 747.944 262.501 751.047 256.402C754.15 250.303 755.702 243.669 755.702 236.5C755.702 229.117 754.043 222.376 750.726 216.277C747.516 210.071 743.183 205.149 737.726 201.511C732.269 197.873 726.277 196.054 719.75 196.054C713.009 196.054 706.91 197.927 701.453 201.672C695.996 205.417 691.662 210.339 688.452 216.438C685.349 222.537 683.798 229.224 683.798 236.5C683.798 244.097 685.403 250.945 688.613 257.044C691.93 263.036 696.317 267.798 701.774 271.329C707.231 274.86 713.223 276.625 719.75 276.625Z" fill="#222222"/>
<path d="M821.542 316.75V76H865.84V316.75H821.542Z" fill="#222222"/>
<path d="M991.612 200.548H962.722V316.75H918.424V200.548H896.275V156.25H918.424V105.853H962.722V156.25H991.612V200.548Z" fill="#222222"/>
</svg>
